<mxfile host="Electron" modified="2024-11-07T01:32:25.615Z" agent="Mozilla/5.0 (Windows NT 10.0; Win64; x64) AppleWebKit/537.36 (KHTML, like Gecko) draw.io/24.1.0 Chrome/120.0.6099.109 Electron/28.1.0 Safari/537.36" etag="cl8yrHovUDQjpToovMBg" version="24.1.0" type="device">
  <diagram name="Page-1" id="UQj_WzUOZ21GJPXwb31B">
    <mxGraphModel dx="1036" dy="606" grid="0" gridSize="10" guides="1" tooltips="1" connect="1" arrows="1" fold="1" page="0" pageScale="1" pageWidth="850" pageHeight="1100" math="0" shadow="0">
      <root>
        <mxCell id="0" />
        <mxCell id="1" parent="0" />
        <mxCell id="VLMzUEpsnQ_5M2cS1geW-11" style="edgeStyle=orthogonalEdgeStyle;rounded=0;orthogonalLoop=1;jettySize=auto;html=1;exitX=0.5;exitY=1;exitDx=0;exitDy=0;entryX=0.5;entryY=0;entryDx=0;entryDy=0;fontSize=14;fontStyle=1" parent="1" source="VLMzUEpsnQ_5M2cS1geW-1" target="VLMzUEpsnQ_5M2cS1geW-4" edge="1">
          <mxGeometry relative="1" as="geometry" />
        </mxCell>
        <mxCell id="VLMzUEpsnQ_5M2cS1geW-1" value="Usuario Ingresa" style="rounded=1;whiteSpace=wrap;html=1;fontSize=14;fontStyle=1;strokeWidth=3;" parent="1" vertex="1">
          <mxGeometry x="365" y="140" width="120" height="60" as="geometry" />
        </mxCell>
        <mxCell id="VLMzUEpsnQ_5M2cS1geW-31" style="edgeStyle=orthogonalEdgeStyle;rounded=0;orthogonalLoop=1;jettySize=auto;html=1;exitX=0.5;exitY=1;exitDx=0;exitDy=0;entryX=0.5;entryY=0;entryDx=0;entryDy=0;" parent="1" source="VLMzUEpsnQ_5M2cS1geW-2" target="VLMzUEpsnQ_5M2cS1geW-30" edge="1">
          <mxGeometry relative="1" as="geometry" />
        </mxCell>
        <mxCell id="VLMzUEpsnQ_5M2cS1geW-2" value="Selecciona servicio" style="rounded=1;whiteSpace=wrap;html=1;fontSize=14;fontStyle=1;strokeWidth=3;" parent="1" vertex="1">
          <mxGeometry x="200" y="360" width="120" height="60" as="geometry" />
        </mxCell>
        <mxCell id="VLMzUEpsnQ_5M2cS1geW-6" style="edgeStyle=orthogonalEdgeStyle;rounded=0;orthogonalLoop=1;jettySize=auto;html=1;exitX=1;exitY=0.5;exitDx=0;exitDy=0;fontSize=14;fontStyle=1" parent="1" source="VLMzUEpsnQ_5M2cS1geW-4" target="VLMzUEpsnQ_5M2cS1geW-5" edge="1">
          <mxGeometry relative="1" as="geometry" />
        </mxCell>
        <mxCell id="VLMzUEpsnQ_5M2cS1geW-8" value="Sí" style="edgeLabel;html=1;align=center;verticalAlign=middle;resizable=0;points=[];fontSize=14;fontStyle=1" parent="VLMzUEpsnQ_5M2cS1geW-6" vertex="1" connectable="0">
          <mxGeometry x="-0.406" relative="1" as="geometry">
            <mxPoint as="offset" />
          </mxGeometry>
        </mxCell>
        <mxCell id="VLMzUEpsnQ_5M2cS1geW-7" style="edgeStyle=orthogonalEdgeStyle;rounded=0;orthogonalLoop=1;jettySize=auto;html=1;exitX=0;exitY=0.5;exitDx=0;exitDy=0;entryX=0.5;entryY=0;entryDx=0;entryDy=0;fontSize=14;fontStyle=1" parent="1" source="VLMzUEpsnQ_5M2cS1geW-4" target="VLMzUEpsnQ_5M2cS1geW-2" edge="1">
          <mxGeometry relative="1" as="geometry" />
        </mxCell>
        <mxCell id="VLMzUEpsnQ_5M2cS1geW-9" value="No" style="edgeLabel;html=1;align=center;verticalAlign=middle;resizable=0;points=[];fontSize=14;fontStyle=1" parent="VLMzUEpsnQ_5M2cS1geW-7" vertex="1" connectable="0">
          <mxGeometry x="-0.556" y="4" relative="1" as="geometry">
            <mxPoint as="offset" />
          </mxGeometry>
        </mxCell>
        <mxCell id="VLMzUEpsnQ_5M2cS1geW-4" value="¿Primera vez ingresando?" style="rhombus;whiteSpace=wrap;html=1;fontSize=14;fontStyle=1;strokeWidth=3;" parent="1" vertex="1">
          <mxGeometry x="363" y="230" width="125" height="110" as="geometry" />
        </mxCell>
        <mxCell id="VLMzUEpsnQ_5M2cS1geW-10" style="edgeStyle=orthogonalEdgeStyle;rounded=0;orthogonalLoop=1;jettySize=auto;html=1;exitX=0;exitY=0.5;exitDx=0;exitDy=0;entryX=1;entryY=0.5;entryDx=0;entryDy=0;fontSize=14;fontStyle=1" parent="1" source="VLMzUEpsnQ_5M2cS1geW-5" target="VLMzUEpsnQ_5M2cS1geW-2" edge="1">
          <mxGeometry relative="1" as="geometry" />
        </mxCell>
        <mxCell id="VLMzUEpsnQ_5M2cS1geW-5" value="Se le entrega cupón&lt;div style=&quot;font-size: 14px;&quot;&gt;nuevo cliente&lt;/div&gt;" style="rounded=1;whiteSpace=wrap;html=1;fontSize=14;fontStyle=1;strokeWidth=3;" parent="1" vertex="1">
          <mxGeometry x="520" y="360" width="120" height="60" as="geometry" />
        </mxCell>
        <mxCell id="VLMzUEpsnQ_5M2cS1geW-15" style="edgeStyle=orthogonalEdgeStyle;rounded=0;orthogonalLoop=1;jettySize=auto;html=1;exitX=0.5;exitY=1;exitDx=0;exitDy=0;entryX=0.5;entryY=0;entryDx=0;entryDy=0;fontSize=14;fontStyle=1" parent="1" source="VLMzUEpsnQ_5M2cS1geW-12" target="VLMzUEpsnQ_5M2cS1geW-14" edge="1">
          <mxGeometry relative="1" as="geometry" />
        </mxCell>
        <mxCell id="VLMzUEpsnQ_5M2cS1geW-12" value="Ingresa datos" style="rounded=1;whiteSpace=wrap;html=1;fontSize=14;fontStyle=1;strokeWidth=3;" parent="1" vertex="1">
          <mxGeometry x="197.5" y="724" width="120" height="60" as="geometry" />
        </mxCell>
        <mxCell id="VLMzUEpsnQ_5M2cS1geW-17" style="edgeStyle=orthogonalEdgeStyle;rounded=0;orthogonalLoop=1;jettySize=auto;html=1;exitX=0.5;exitY=1;exitDx=0;exitDy=0;entryX=0.5;entryY=0;entryDx=0;entryDy=0;fontSize=14;fontStyle=1" parent="1" source="VLMzUEpsnQ_5M2cS1geW-14" target="VLMzUEpsnQ_5M2cS1geW-16" edge="1">
          <mxGeometry relative="1" as="geometry" />
        </mxCell>
        <mxCell id="VLMzUEpsnQ_5M2cS1geW-21" value="Si" style="edgeLabel;html=1;align=center;verticalAlign=middle;resizable=0;points=[];fontSize=14;fontStyle=1" parent="VLMzUEpsnQ_5M2cS1geW-17" vertex="1" connectable="0">
          <mxGeometry x="-0.24" y="1" relative="1" as="geometry">
            <mxPoint as="offset" />
          </mxGeometry>
        </mxCell>
        <mxCell id="urbX5RxB1JgRuFOr6XVA-3" style="edgeStyle=orthogonalEdgeStyle;rounded=0;orthogonalLoop=1;jettySize=auto;html=1;exitX=1;exitY=0.5;exitDx=0;exitDy=0;entryX=0.5;entryY=0;entryDx=0;entryDy=0;" edge="1" parent="1" source="VLMzUEpsnQ_5M2cS1geW-14" target="urbX5RxB1JgRuFOr6XVA-1">
          <mxGeometry relative="1" as="geometry" />
        </mxCell>
        <mxCell id="urbX5RxB1JgRuFOr6XVA-4" value="No" style="edgeLabel;html=1;align=center;verticalAlign=middle;resizable=0;points=[];" vertex="1" connectable="0" parent="urbX5RxB1JgRuFOr6XVA-3">
          <mxGeometry x="-0.1269" y="1" relative="1" as="geometry">
            <mxPoint as="offset" />
          </mxGeometry>
        </mxCell>
        <mxCell id="VLMzUEpsnQ_5M2cS1geW-14" value="¿Está de&lt;div style=&quot;font-size: 14px;&quot;&gt;cumpleaños?&lt;/div&gt;" style="rhombus;whiteSpace=wrap;html=1;fontSize=14;fontStyle=1;strokeWidth=3;" parent="1" vertex="1">
          <mxGeometry x="195" y="814" width="125" height="110" as="geometry" />
        </mxCell>
        <mxCell id="urbX5RxB1JgRuFOr6XVA-2" style="edgeStyle=orthogonalEdgeStyle;rounded=0;orthogonalLoop=1;jettySize=auto;html=1;exitX=1;exitY=0.5;exitDx=0;exitDy=0;entryX=0;entryY=0.5;entryDx=0;entryDy=0;" edge="1" parent="1" source="VLMzUEpsnQ_5M2cS1geW-16" target="urbX5RxB1JgRuFOr6XVA-1">
          <mxGeometry relative="1" as="geometry" />
        </mxCell>
        <mxCell id="VLMzUEpsnQ_5M2cS1geW-16" value="Se le entrega cupón&lt;div style=&quot;font-size: 14px;&quot;&gt;cumpleaños&lt;/div&gt;" style="rounded=1;whiteSpace=wrap;html=1;fontSize=14;fontStyle=1;strokeWidth=3;" parent="1" vertex="1">
          <mxGeometry x="197.5" y="974" width="120" height="60" as="geometry" />
        </mxCell>
        <mxCell id="VLMzUEpsnQ_5M2cS1geW-24" style="edgeStyle=orthogonalEdgeStyle;rounded=0;orthogonalLoop=1;jettySize=auto;html=1;exitX=1;exitY=0.5;exitDx=0;exitDy=0;entryX=0;entryY=0.5;entryDx=0;entryDy=0;fontSize=14;fontStyle=1" parent="1" target="VLMzUEpsnQ_5M2cS1geW-23" edge="1">
          <mxGeometry relative="1" as="geometry">
            <mxPoint x="514.5" y="1004" as="sourcePoint" />
          </mxGeometry>
        </mxCell>
        <mxCell id="VLMzUEpsnQ_5M2cS1geW-23" value="Realizar pago" style="rounded=1;whiteSpace=wrap;html=1;fontSize=14;fontStyle=1;strokeWidth=3;" parent="1" vertex="1">
          <mxGeometry x="585" y="974" width="120" height="60" as="geometry" />
        </mxCell>
        <mxCell id="VLMzUEpsnQ_5M2cS1geW-37" style="edgeStyle=orthogonalEdgeStyle;rounded=0;orthogonalLoop=1;jettySize=auto;html=1;exitX=0.5;exitY=1;exitDx=0;exitDy=0;entryX=0.5;entryY=0;entryDx=0;entryDy=0;" parent="1" source="VLMzUEpsnQ_5M2cS1geW-30" target="VLMzUEpsnQ_5M2cS1geW-34" edge="1">
          <mxGeometry relative="1" as="geometry" />
        </mxCell>
        <mxCell id="VLMzUEpsnQ_5M2cS1geW-30" value="Agregar al carro" style="rounded=1;whiteSpace=wrap;html=1;fontSize=14;fontStyle=1;strokeWidth=3;" parent="1" vertex="1">
          <mxGeometry x="200" y="467" width="120" height="60" as="geometry" />
        </mxCell>
        <mxCell id="VLMzUEpsnQ_5M2cS1geW-35" style="edgeStyle=orthogonalEdgeStyle;rounded=0;orthogonalLoop=1;jettySize=auto;html=1;exitX=0;exitY=0.5;exitDx=0;exitDy=0;entryX=0;entryY=0.5;entryDx=0;entryDy=0;" parent="1" source="VLMzUEpsnQ_5M2cS1geW-34" target="VLMzUEpsnQ_5M2cS1geW-2" edge="1">
          <mxGeometry relative="1" as="geometry" />
        </mxCell>
        <mxCell id="VLMzUEpsnQ_5M2cS1geW-38" value="Sí" style="edgeLabel;html=1;align=center;verticalAlign=middle;resizable=0;points=[];" parent="VLMzUEpsnQ_5M2cS1geW-35" vertex="1" connectable="0">
          <mxGeometry x="-0.5242" y="-1" relative="1" as="geometry">
            <mxPoint as="offset" />
          </mxGeometry>
        </mxCell>
        <mxCell id="VLMzUEpsnQ_5M2cS1geW-36" style="edgeStyle=orthogonalEdgeStyle;rounded=0;orthogonalLoop=1;jettySize=auto;html=1;exitX=0.5;exitY=1;exitDx=0;exitDy=0;entryX=0.5;entryY=0;entryDx=0;entryDy=0;" parent="1" source="VLMzUEpsnQ_5M2cS1geW-34" target="VLMzUEpsnQ_5M2cS1geW-12" edge="1">
          <mxGeometry relative="1" as="geometry" />
        </mxCell>
        <mxCell id="VLMzUEpsnQ_5M2cS1geW-39" value="No" style="edgeLabel;html=1;align=center;verticalAlign=middle;resizable=0;points=[];" parent="VLMzUEpsnQ_5M2cS1geW-36" vertex="1" connectable="0">
          <mxGeometry x="-0.2917" y="-1" relative="1" as="geometry">
            <mxPoint y="1" as="offset" />
          </mxGeometry>
        </mxCell>
        <mxCell id="VLMzUEpsnQ_5M2cS1geW-34" value="¿Desea seguir comprando?" style="rhombus;whiteSpace=wrap;html=1;fontSize=14;fontStyle=1;strokeWidth=3;" parent="1" vertex="1">
          <mxGeometry x="195" y="566" width="125" height="110" as="geometry" />
        </mxCell>
        <mxCell id="urbX5RxB1JgRuFOr6XVA-1" value="¿Tiene&lt;div&gt;cupones aplicables?&lt;/div&gt;" style="rhombus;whiteSpace=wrap;html=1;fontSize=14;fontStyle=1;strokeWidth=3;" vertex="1" parent="1">
          <mxGeometry x="389" y="940" width="125" height="128" as="geometry" />
        </mxCell>
      </root>
    </mxGraphModel>
  </diagram>
</mxfile>
